<svg xmlns="http://www.w3.org/2000/svg" viewBox="0 0 200 200">
<!-- Original vector artwork; MIT; rebuild: node scripts/gen-delicate-assets.mjs -->
<g transform="translate(64 112) scale(0.85)"><path d="M0 10C-32 -10 -26 -35 -9 -27C-3 -25 0 -20 0 -17C4 -31 25 -33 28 -18C33 -4 12 8 0 20" fill="none" stroke="__C1__" stroke-width="2.9411764705882355" stroke-linecap="round" stroke-linejoin="round" /></g><g transform="translate(128 70) scale(0.62)"><path d="M0 10C-32 -10 -26 -35 -9 -27C-3 -25 0 -20 0 -17C4 -31 25 -33 28 -18C33 -4 12 8 0 20" fill="none" stroke="__C1__" stroke-width="4.032258064516129" stroke-linecap="round" stroke-linejoin="round" /></g><g transform="translate(146 143) scale(0.4)"><path d="M0 10C-32 -10 -26 -35 -9 -27C-3 -25 0 -20 0 -17C4 -31 25 -33 28 -18C33 -4 12 8 0 20" fill="none" stroke="__C1__" stroke-width="6.25" stroke-linecap="round" stroke-linejoin="round" /></g>
</svg>
