<svg xmlns="http://www.w3.org/2000/svg" viewBox="0 0 200 200" width="200" height="200">
<!-- shock/lines3 | 漫画素材パック v1 | MIT License | generated by scripts/gen-manga-assets.mjs -->
<path d="M62.4 169.9C62.9 168.3 64.4 163.6 64.8 160.5C65.2 157.4 65.1 154.4 65 151.4C64.9 148.4 64.4 145.4 64.1 142.4C63.8 139.5 63.7 136.4 63.4 133.5C63 130.5 62.6 127.6 62 124.7C61.4 121.7 60.5 118.9 59.7 116C58.9 113.2 58 110.3 57.3 107.5C56.5 104.6 55.9 101.7 55.1 98.8C54.2 96 53.4 93.1 52.3 90.4C51.2 87.6 49.7 84.9 48.5 82.2C47.2 79.5 46.2 76.7 44.8 74.1C43.5 71.4 41.8 68.9 40.2 66.3C38.6 63.7 37.3 61 35.4 58.6C33.4 56.2 29.7 52.9 28.4 51.8C27.1 50.8 27.8 50.5 27.6 52.2C27.4 53.8 26.9 58.7 27 61.8C27.1 64.9 27.9 67.7 28.3 70.6C28.8 73.6 29.1 76.5 29.6 79.4C30.2 82.3 31 85 31.7 87.8C32.3 90.7 32.6 93.6 33.3 96.4C34 99.2 34.9 101.9 35.7 104.7C36.6 107.4 37.7 110.1 38.5 112.9C39.3 115.6 40 118.4 40.8 121.2C41.5 124 42.2 126.8 43 129.5C43.9 132.3 44.9 135 45.9 137.7C46.9 140.5 48.2 143.1 49.2 145.9C50.2 148.6 51 151.4 52.1 154.1C53.2 156.8 54.3 159.6 55.9 162.2C57.5 164.9 60.5 168.8 61.6 170.1C62.7 171.4 61.9 171.5 62.4 169.9Z" fill="__C1__" stroke="__C2__" stroke-width="6" stroke-linejoin="round" paint-order="stroke"/><path d="M100.5 160C101.4 158.4 104 153.8 105.1 150.6C106.2 147.5 106.5 144.3 107.1 141.2C107.7 138.1 108.1 134.9 108.6 131.8C109.2 128.6 109.7 125.5 110.2 122.3C110.6 119.2 110.9 116 111.1 112.9C111.4 109.7 111.5 106.6 111.6 103.4C111.7 100.3 111.8 97.1 111.7 94C111.7 90.9 111.4 87.7 111.3 84.6C111.2 81.4 111.4 78.3 111.2 75.1C111 72 110.4 68.8 110.1 65.7C109.7 62.5 109.4 59.4 109 56.2C108.6 53.1 108 49.9 107.4 46.8C106.8 43.7 106.3 40.5 105.2 37.4C104 34.2 101.4 29.6 100.5 28C99.5 26.4 100.4 26.4 99.5 28C98.6 29.6 96.1 34.3 95 37.5C94 40.6 93.6 43.8 93 46.9C92.4 50.1 92 53.2 91.6 56.3C91.2 59.5 91 62.6 90.6 65.8C90.3 68.9 89.7 72 89.6 75.2C89.4 78.3 89.6 81.5 89.5 84.6C89.5 87.7 89.2 90.9 89.1 94C89.1 97.1 89.1 100.3 89.2 103.4C89.3 106.5 89.4 109.7 89.6 112.8C89.9 116 90.1 119.1 90.5 122.2C90.9 125.4 91.4 128.5 91.9 131.7C92.4 134.8 92.8 137.9 93.3 141.1C93.8 144.2 94 147.4 95.1 150.5C96.1 153.7 98.7 158.4 99.5 160C100.4 161.6 99.5 161.6 100.5 160Z" fill="__C1__" stroke="__C2__" stroke-width="6" stroke-linejoin="round" paint-order="stroke"/><path d="M138.4 170.1C139.5 168.8 142.7 164.9 144.2 162.3C145.8 159.6 146.5 156.8 147.7 154.1C148.9 151.4 150.2 148.7 151.2 146C152.3 143.2 153 140.4 154 137.7C155 135 156.3 132.3 157.1 129.6C158 126.8 158.4 124 159.2 121.2C160 118.4 161.1 115.7 161.9 113C162.6 110.2 163 107.3 163.9 104.6C164.8 101.8 166.3 99.3 167.1 96.5C167.8 93.7 167.7 90.7 168.3 87.8C168.8 85 169.6 82.2 170.2 79.3C170.8 76.5 171.4 73.6 171.9 70.7C172.3 67.8 173 64.9 173 61.8C173.1 58.7 172.6 53.8 172.4 52.1C172.1 50.5 172.9 50.8 171.6 51.9C170.3 52.9 166.6 56.2 164.6 58.6C162.6 61 161.1 63.6 159.6 66.2C158.1 68.8 156.7 71.4 155.3 74.1C154 76.8 152.9 79.6 151.6 82.2C150.3 84.9 148.4 87.5 147.4 90.2C146.3 93 146.1 96.1 145.3 98.9C144.5 101.8 143.2 104.5 142.4 107.4C141.6 110.2 141.1 113.2 140.3 116C139.6 118.9 138.5 121.7 137.9 124.6C137.3 127.5 137.1 130.6 136.7 133.5C136.3 136.5 135.7 139.4 135.5 142.4C135.2 145.3 135.2 148.4 135.2 151.4C135.1 154.4 134.7 157.3 135.1 160.4C135.5 163.5 137.1 168.3 137.6 169.9C138.2 171.5 137.3 171.3 138.4 170.1Z" fill="__C1__" stroke="__C2__" stroke-width="6" stroke-linejoin="round" paint-order="stroke"/>
</svg>
